<svg width="24" height="24" viewBox="0 0 24 24" fill="none" xmlns="http://www.w3.org/2000/svg">
<g clip-path="url(#clip0_13002_30482)">
<path d="M8.33387 14.4199C9.1612 14.4199 9.8319 15.0906 9.8319 15.918V22.3441C9.8319 23.1714 9.1612 23.842 8.33387 23.842C7.50664 23.842 6.83594 23.1714 6.83594 22.3441V15.918C6.83594 15.0907 7.50664 14.42 8.33387 14.42V14.4199Z" fill="#6F38BA"/>
<path d="M4.91551 6.69336C4.91056 6.75016 4.90625 6.8076 4.90625 6.86566V16.6019C4.90625 17.649 5.73505 18.4925 6.76393 18.4925H16.665C17.694 18.4925 18.5228 17.6489 18.5228 16.6019V6.86566C18.5228 6.8076 18.5207 6.74995 18.5158 6.69336H4.91551Z" fill="#6F38BA"/>
<path fill-rule="evenodd" clip-rule="evenodd" d="M16.5905 15.9184C16.5905 15.0911 15.9198 14.4204 15.0924 14.4204V14.4205C14.2652 14.4205 13.5945 15.0912 13.5945 15.9184V22.3446C13.5945 23.1719 14.2652 23.8425 15.0924 23.8425C15.9198 23.8425 16.5905 23.1719 16.5905 22.3446V15.9184ZM3.99596 9.05889C3.99596 8.23156 3.32526 7.56086 2.49803 7.56086C1.6706 7.56086 0.999895 8.23166 1 9.05899V15.4852C1 16.3124 1.6707 16.9831 2.49803 16.9831C3.32526 16.9831 3.99596 16.3124 3.99596 15.485V9.05889ZM22.4265 9.05889C22.4265 8.23156 21.7558 7.56086 20.9286 7.56086C20.1012 7.56086 19.4305 8.23166 19.4305 9.05899V15.4852C19.4305 16.3124 20.1012 16.9831 20.9286 16.9831C21.7558 16.9831 22.4265 16.3124 22.4265 15.485V9.05889ZM10.9604 0.289062C7.60982 0.612211 4.9996 3.06423 4.95794 6.05483H18.4683C18.4267 3.06444 15.8167 0.612316 12.4659 0.289062H10.9604ZM8.9295 4.13336C9.35763 4.13221 9.70361 3.79233 9.70235 3.3743V3.37009C9.70108 2.95185 9.35311 2.61408 8.92519 2.61524C8.49716 2.61639 8.15119 2.95616 8.15235 3.3743V3.37851C8.15361 3.79654 8.50158 4.13441 8.9295 4.13336ZM14.7146 4.13336C15.1428 4.13221 15.4887 3.79233 15.4875 3.3743V3.37009C15.4862 2.95185 15.1382 2.61408 14.7103 2.61524C14.2823 2.61639 13.9363 2.95616 13.9375 3.3743V3.37851C13.9387 3.79654 14.2867 4.13441 14.7146 4.13336Z" fill="#6F38BA"/>
<path d="M5.48047 0L7.06066 2.73709M17.9492 0L16.3689 2.73709" stroke="#6F38BA" stroke-width="0.315575" stroke-linecap="round" stroke-linejoin="round"/>
</g>
<defs>
<clipPath id="clip0_13002_30482">
<rect width="24" height="24" fill="white"/>
</clipPath>
</defs>
</svg>
