<svg width="24" height="24" viewBox="0 0 24 24" fill="none" xmlns="http://www.w3.org/2000/svg">
<path d="M18.7954 12.6409C18.7847 10.6809 19.6706 9.2016 21.4638 8.11215C20.4605 6.67557 18.9448 5.88518 16.9435 5.73031C15.0488 5.58077 12.9781 6.83578 12.2203 6.83578C11.4197 6.83578 9.5838 5.78371 8.14283 5.78371C5.16481 5.83178 2 8.16021 2 12.8972C2 14.2964 2.25617 15.7419 2.76852 17.2336C3.45165 19.1936 5.91732 24 8.48973 23.9199C9.83464 23.8879 10.7846 22.964 12.5351 22.964C14.2323 22.964 15.1129 23.9199 16.6126 23.9199C19.2063 23.8825 21.4372 19.514 22.0883 17.5487C18.6086 15.9092 18.7954 12.7423 18.7954 12.6409ZM15.7747 3.87183C17.2316 2.14152 17.0982 0.566088 17.0555 0C15.7693 0.0747664 14.2803 0.875835 13.4317 1.86382C12.4978 2.92123 11.9481 4.22964 12.0655 5.70361C13.4584 5.81041 14.7286 5.09479 15.7747 3.87183Z" fill="white"/>
</svg>
