<svg width="130" height="48" viewBox="0 0 130 48" fill="none" xmlns="http://www.w3.org/2000/svg">
<rect width="130" height="48" rx="4" fill="#1A1C20"/>
<path d="M27.0349 15.5572C27.7932 14.6064 28.3121 13.3128 28.1681 12C27.0704 12.0487 25.6977 12.7612 24.9072 13.6912C24.2078 14.5107 23.583 15.8539 23.7444 17.117C24.9775 17.2093 26.2435 16.4933 27.0349 15.5572Z" fill="white"/>
<path d="M31.0428 25.6091C31.0176 22.8053 33.3327 21.4412 33.4385 21.3777C32.1274 19.4612 30.0952 19.1994 29.3811 19.1785C27.6743 18.9984 26.0187 20.2024 25.1492 20.2024C24.2625 20.2024 22.9236 19.1959 21.4805 19.2255C19.6236 19.2542 17.8865 20.332 16.9337 22.0059C14.9675 25.4186 16.4339 30.4339 18.3177 33.1925C19.2601 34.5435 20.3612 36.052 21.8025 35.9989C23.2125 35.9407 23.7392 35.0977 25.4408 35.0977C27.1268 35.0977 27.6214 35.9989 29.0912 35.965C30.6045 35.9407 31.5573 34.6079 32.4667 33.2447C33.5557 31.6961 33.993 30.1712 34.0104 30.0929C33.9748 30.0807 31.0714 28.9698 31.0428 25.6091Z" fill="white"/>
<path d="M50.5451 34.5316H52.2669V25.9147H50.5451V34.5316ZM51.41 24.6848C51.9654 24.6848 52.4177 24.2405 52.4177 23.693C52.4177 23.1296 51.9654 22.7012 51.41 22.7012C50.8546 22.7012 50.4023 23.1296 50.4023 23.693C50.4023 24.2405 50.8546 24.6848 51.41 24.6848ZM59.2255 22.8916C55.9248 22.8916 53.8618 25.1688 53.8618 28.8108C53.8618 32.4528 55.9248 34.7221 59.2255 34.7221C62.5184 34.7221 64.5893 32.4528 64.5893 28.8108C64.5893 25.1688 62.5184 22.8916 59.2255 22.8916ZM59.2255 24.4547C61.3996 24.4547 62.7644 26.1368 62.7644 28.8108C62.7644 31.4768 61.3996 33.1589 59.2255 33.1589C57.0515 33.1589 55.6788 31.4768 55.6788 28.8108C55.6788 26.1368 57.0515 24.4547 59.2255 24.4547ZM65.7795 31.3419C65.8906 33.4128 67.6044 34.7221 70.1435 34.7221C72.8571 34.7221 74.5631 33.3811 74.5631 31.2388C74.5631 29.5646 73.5871 28.6204 71.2385 28.0649L69.9769 27.7555C68.501 27.3905 67.898 26.9144 67.898 26.1051C67.898 25.0895 68.8422 24.3912 70.2228 24.3912C71.6035 24.3912 72.5477 25.0816 72.6508 26.2241H74.3806C74.325 24.2484 72.6667 22.8916 70.2467 22.8916C67.8028 22.8916 66.081 24.2484 66.081 26.2241C66.081 27.819 67.057 28.8029 69.1596 29.3107L70.6434 29.6677C72.1271 30.0327 72.754 30.5643 72.754 31.453C72.754 32.4766 71.7145 33.2224 70.2705 33.2224C68.7629 33.2224 67.66 32.4766 67.533 31.3419H65.7795Z" fill="white"/>
<path d="M55.8431 16.7476V16.0603H53.1756V16.9603H54.6867L54.6812 17.0585C54.6594 17.8931 54.0048 18.4605 53.0556 18.4605C51.9264 18.4605 51.2173 17.604 51.2173 16.2021C51.2173 14.822 51.8937 14.0092 53.0284 14.0092C53.7975 14.0092 54.3757 14.4183 54.5939 15.1111H55.7886C55.5813 13.851 54.4848 13 53.0229 13C51.1682 13 50.0117 14.2165 50.0117 16.213C50.0117 18.2368 51.1682 19.4642 53.0447 19.4642C54.8012 19.4642 55.8431 18.4441 55.8431 16.7476ZM61.0418 18.3568H58.0742V16.6603H60.8836V15.7221H58.0742V14.1128H61.0418V13.1091H56.8905V19.3605H61.0418V18.3568ZM64.9203 19.3605V14.1128H66.8459V13.1091H61.8164V14.1128H63.742V19.3605H64.9203ZM71.5045 19.3605V16.8458H74.1665V15.8857H71.5045V14.1128H74.4175V13.1091H70.3208V19.3605H71.5045ZM78.2033 13C76.3267 13 75.1594 14.2437 75.1594 16.2348C75.1594 18.2259 76.3267 19.4642 78.2033 19.4642C80.0689 19.4642 81.2417 18.2259 81.2417 16.2348C81.2417 14.2437 80.0689 13 78.2033 13ZM78.2033 14.0201C79.3215 14.0201 80.0307 14.8765 80.0307 16.2348C80.0307 17.5931 79.3215 18.4496 78.2033 18.4496C77.0741 18.4496 76.3649 17.5931 76.3649 16.2348C76.3649 14.8765 77.0795 14.0201 78.2033 14.0201ZM83.451 14.0637H84.7165C85.4257 14.0637 85.8676 14.4674 85.8676 15.1002C85.8676 15.7548 85.453 16.1366 84.7384 16.1366H83.451V14.0637ZM83.451 17.0367H84.6784L85.9166 19.3605H87.2695L85.8839 16.8512C86.6422 16.5785 87.0786 15.8912 87.0786 15.0729C87.0786 13.8619 86.2494 13.1091 84.8475 13.1091H82.2672V19.3605H83.451V17.0367Z" fill="white"/>
</svg>
