<svg width="130" height="48" viewBox="0 0 130 48" fill="none" xmlns="http://www.w3.org/2000/svg">
<rect width="130" height="48" rx="4" fill="#1A1C20"/>
<path d="M63.3075 34.5317H65.188L61.0541 23.0821H59.1339L55 34.5317H56.8488L57.8961 31.4372H62.2601L63.3075 34.5317ZM60.0543 24.9864H60.1019L61.8079 30.009H58.3484L60.0543 24.9864ZM66.275 34.5317H67.9968V29.5567C67.9968 28.1999 68.7744 27.2954 70.0757 27.2954C71.3373 27.2954 71.9403 28.0254 71.9403 29.3346V34.5317H73.6621V29.0093C73.6621 27.0256 72.5751 25.8196 70.6708 25.8196C69.3378 25.8196 68.4729 26.3512 67.9492 27.3668H67.9175V25.9148H66.275V34.5317ZM78.6291 34.619C79.8907 34.619 80.8746 34.0477 81.3824 33.0718H81.4142V34.5317H83.0804V22.5664H81.3666V27.343H81.3269C80.835 26.3909 79.8511 25.8275 78.6133 25.8275C76.4709 25.8275 74.9951 27.5652 74.9951 30.2153C74.9951 32.8813 76.4709 34.619 78.6291 34.619ZM79.0656 27.2875C80.4462 27.2875 81.3745 28.4697 81.3745 30.2233C81.3745 31.9847 80.4462 33.159 79.0656 33.159C77.6691 33.159 76.7566 32.0085 76.7566 30.2233C76.7566 28.4459 77.677 27.2875 79.0656 27.2875ZM84.9054 34.5317H86.6272V29.3901C86.6272 28.1761 87.3413 27.3906 88.476 27.3906C88.8171 27.3906 89.1187 27.4382 89.2615 27.4938V25.883C89.1266 25.8513 88.9124 25.8275 88.6584 25.8275C87.6428 25.8275 86.8494 26.4067 86.5796 27.3668H86.5479V25.9148H84.9054V34.5317ZM93.689 34.6349C96.1804 34.6349 97.7594 32.9369 97.7594 30.2233C97.7594 27.5096 96.1725 25.8037 93.689 25.8037C91.2054 25.8037 89.6106 27.5176 89.6106 30.2233C89.6106 32.9369 91.1975 34.6349 93.689 34.6349ZM93.689 33.2067C92.229 33.2067 91.3562 32.1037 91.3562 30.2233C91.3562 28.3507 92.229 27.2319 93.689 27.2319C95.1489 27.2319 96.0138 28.3428 96.0138 30.2233C96.0138 32.1037 95.1489 33.2067 93.689 33.2067ZM99.2035 34.5317H100.925V25.9148H99.2035V34.5317ZM100.068 24.6849C100.624 24.6849 101.076 24.2406 101.076 23.6931C101.076 23.1297 100.624 22.7013 100.068 22.7013C99.5129 22.7013 99.0607 23.1297 99.0607 23.6931C99.0607 24.2406 99.5129 24.6849 100.068 24.6849ZM106.003 34.619C107.265 34.619 108.249 34.0477 108.757 33.0718H108.789V34.5317H110.455V22.5664H108.741V27.343H108.701C108.21 26.3909 107.226 25.8275 105.988 25.8275C103.845 25.8275 102.369 27.5652 102.369 30.2153C102.369 32.8813 103.845 34.619 106.003 34.619ZM106.44 27.2875C107.821 27.2875 108.749 28.4697 108.749 30.2233C108.749 31.9847 107.821 33.159 106.44 33.159C105.043 33.159 104.131 32.0085 104.131 30.2233C104.131 28.4459 105.051 27.2875 106.44 27.2875Z" fill="white"/>
<path d="M61.0345 16.7476V16.0603H58.367V16.9603H59.8781L59.8726 17.0585C59.8508 17.8932 59.1962 18.4605 58.247 18.4605C57.1178 18.4605 56.4087 17.604 56.4087 16.2021C56.4087 14.822 57.0851 14.0092 58.2198 14.0092C58.9889 14.0092 59.5671 14.4183 59.7853 15.1111H60.98C60.7727 13.851 59.6762 13 58.2143 13C56.3596 13 55.2031 14.2165 55.2031 16.213C55.2031 18.2368 56.3596 19.4642 58.2361 19.4642C59.9926 19.4642 61.0345 18.4441 61.0345 16.7476ZM66.2332 18.3568H63.2656V16.6603H66.075V15.7221H63.2656V14.1128H66.2332V13.1091H62.0819V19.3606H66.2332V18.3568ZM70.1117 19.3606V14.1128H72.0373V13.1091H67.0078V14.1128H68.9334V19.3606H70.1117ZM76.6959 19.3606V16.8458H79.3579V15.8857H76.6959V14.1128H79.6089V13.1091H75.5122V19.3606H76.6959ZM83.3947 13C81.5181 13 80.3508 14.2437 80.3508 16.2348C80.3508 18.2259 81.5181 19.4642 83.3947 19.4642C85.2603 19.4642 86.4331 18.2259 86.4331 16.2348C86.4331 14.2437 85.2603 13 83.3947 13ZM83.3947 14.0201C84.5129 14.0201 85.2221 14.8765 85.2221 16.2348C85.2221 17.5931 84.5129 18.4496 83.3947 18.4496C82.2655 18.4496 81.5563 17.5931 81.5563 16.2348C81.5563 14.8765 82.2709 14.0201 83.3947 14.0201ZM88.6424 14.0637H89.9079C90.6171 14.0637 91.059 14.4674 91.059 15.1002C91.059 15.7548 90.6444 16.1366 89.9298 16.1366H88.6424V14.0637ZM88.6424 17.0367H89.8698L91.108 19.3606H92.4609L91.0753 16.8512C91.8336 16.5785 92.27 15.8912 92.27 15.0729C92.27 13.8619 91.4408 13.1091 90.0389 13.1091H87.4586V19.3606H88.6424V17.0367Z" fill="white"/>
<g clip-path="url(#clip0_9808_58790)">
<path fill-rule="evenodd" clip-rule="evenodd" d="M36.069 19.5874C35.2774 19.5874 34.6365 20.211 34.6365 20.9801V26.9421C34.6365 27.7112 35.2774 28.3348 36.069 28.3348C36.8591 28.3348 37.5 27.7112 37.5 26.9421V20.9801C37.5 20.2112 36.8591 19.5874 36.069 19.5874ZM17.9325 19.5874C17.1409 19.5874 16.5 20.211 16.5 20.9801V26.9421C16.5 27.7112 17.1409 28.3348 17.9325 28.3348C18.7226 28.3348 19.3635 27.7112 19.3635 26.9421V20.9801C19.3635 20.2112 18.7226 19.5874 17.9325 19.5874ZM20.4219 19.5874H20.319V29.8067C20.319 30.618 20.9961 31.2786 21.8312 31.2786H22.9215C22.8838 31.4014 22.8636 31.5298 22.8636 31.6652V34.6075C22.8636 35.3766 23.5059 36.0002 24.2961 36.0002C25.0862 36.0002 25.7286 35.3766 25.7286 34.6075V31.665C25.7286 31.5296 25.7068 31.4012 25.6706 31.2784H28.3298C28.2936 31.4012 28.2731 31.5296 28.2731 31.665V34.6073C28.2731 35.3764 28.914 36 29.7041 36C30.4957 36 31.1381 35.3764 31.1381 34.6073V31.665C31.1381 31.5296 31.1164 31.4012 31.0787 31.2784H32.1705C33.0056 31.2784 33.6812 30.618 33.6812 29.8065V19.5874H20.4219ZM30.2869 14.0093L30.5537 13.617L30.8205 13.2304L31.4149 12.3611C31.4887 12.2539 31.4584 12.1099 31.3481 12.0394C31.2394 11.9674 31.0901 11.997 31.0191 12.1043L30.1114 13.4265L29.8389 13.8244C28.9762 13.4985 28.0149 13.3165 27 13.3165C25.9866 13.3165 25.0238 13.4985 24.1611 13.8244L23.8899 13.4265L23.6216 13.0356L22.9838 12.1043C22.9099 11.997 22.7619 11.9689 22.6517 12.0394C22.5429 12.1099 22.5126 12.2539 22.5849 12.3611L23.1793 13.2304L23.4461 13.617L23.7144 14.0093C21.6889 14.9278 20.3188 16.6678 20.3188 18.6589H33.6808C33.681 16.6678 32.3109 14.928 30.2869 14.0093ZM24.1365 16.8004C23.7407 16.8004 23.4202 16.4886 23.4202 16.1033C23.4202 15.718 23.7407 15.4076 24.1365 15.4076C24.5323 15.4076 24.8527 15.7181 24.8527 16.1033C24.8527 16.4886 24.5323 16.8004 24.1365 16.8004ZM29.8635 16.8004C29.4677 16.8004 29.1473 16.4886 29.1473 16.1033C29.1473 15.718 29.4677 15.4076 29.8635 15.4076C30.2593 15.4076 30.5798 15.7181 30.5798 16.1033C30.5798 16.4886 30.2593 16.8004 29.8635 16.8004Z" fill="white"/>
</g>
<defs>
<clipPath id="clip0_9808_58790">
<rect width="24" height="24" fill="white" transform="translate(15 12)"/>
</clipPath>
</defs>
</svg>
