<svg width="24" height="24" viewBox="0 0 24 24" fill="none" xmlns="http://www.w3.org/2000/svg">
<path fill-rule="evenodd" clip-rule="evenodd" d="M9.05824 11.999C10.9882 11.999 12.5582 10.429 12.5582 8.49902C12.5582 6.56902 10.9882 4.99902 9.05824 4.99902C7.12824 4.99902 5.55824 6.56902 5.55824 8.49902C5.55824 10.429 7.12824 11.999 9.05824 11.999ZM2.05688 17.2483C2.05688 14.9183 6.71688 13.7483 9.05688 13.7483C11.3969 13.7483 16.0569 14.9183 16.0569 17.2483V18.9983H2.05688V17.2483ZM9.05656 15.7497C7.26656 15.7497 5.23656 16.4197 4.39656 16.9997H13.7166C12.8766 16.4197 10.8466 15.7497 9.05656 15.7497ZM10.5555 8.49834C10.5555 7.66834 9.88553 6.99834 9.05553 6.99834C8.22553 6.99834 7.55553 7.66834 7.55553 8.49834C7.55553 9.32834 8.22553 9.99834 9.05553 9.99834C9.88553 9.99834 10.5555 9.32834 10.5555 8.49834ZM16.0949 13.8095C17.2549 14.6495 18.0549 15.7695 18.0549 17.2495V18.9995H22.0549V17.2495C22.0549 15.2295 18.5549 14.0795 16.0949 13.8095ZM18.5555 8.49902C18.5555 10.429 16.9855 11.999 15.0555 11.999C14.5155 11.999 14.0155 11.869 13.5555 11.649C14.1855 10.759 14.5555 9.66902 14.5555 8.49902C14.5555 7.32902 14.1855 6.23902 13.5555 5.34902C14.0155 5.12902 14.5155 4.99902 15.0555 4.99902C16.9855 4.99902 18.5555 6.56902 18.5555 8.49902Z" fill="#673AB7"/>
</svg>
