<svg width="24" height="24" viewBox="0 0 24 24" fill="none" xmlns="http://www.w3.org/2000/svg">
<path fill-rule="evenodd" clip-rule="evenodd" d="M9.10882 4.6153C9.03399 2.13283 10.0021 1.03702 12.013 1.00103C14.0214 0.962188 15.2806 2.02177 15.5386 3.41154C15.7937 4.79846 15.6468 6.62638 16.1599 7.57515C16.6704 8.52653 16.9978 9.25603 17.877 10.3517C18.7535 11.4474 19.2999 12.5625 19.5553 13.9161C19.813 15.267 19.9575 15.905 19.2999 16.6011C18.6427 17.2945 17.4749 18.4263 16.5982 17.1476C16.1573 16.5069 16.1101 15.7107 16.8536 15.5417C17.3278 15.4306 17.669 15.4667 18.0214 15.6497C18.3765 15.8329 18.4596 15.7467 18.0352 15.4306C17.6079 15.1143 17.5221 15.4056 17.669 14.8952C17.8162 14.3847 18.0075 13.4666 17.608 12.4569C17.4222 11.991 16.7926 10.715 16.2016 10.4015C16.1489 10.371 15.9937 10.3073 16.099 10.4376C16.2572 10.6346 17.1087 11.8883 17.35 12.6345C17.608 13.4362 17.644 14.2018 17.511 14.6871C17.378 15.1753 17.1448 15.3695 16.8647 15.3695C16.5845 15.3695 16.3294 15.5026 16.3294 14.8591C16.3294 14.2128 16.396 13.2391 16.0492 12.4152C15.7025 11.5942 15.2808 11.0283 15.1894 10.6815C15.1006 10.3348 14.898 9.40283 14.4793 8.87304C14.0576 8.34325 13.8746 7.99649 14.0936 7.39187C14.3127 6.78999 14.149 6.62626 13.7108 6.49864C13.2726 6.37114 12.6872 6.18799 12.543 5.89402C12.396 5.60279 12.4876 5.01747 12.815 4.87329C13.1449 4.72624 13.6914 4.92595 13.7108 5.34767C13.7302 5.76652 13.5277 5.98566 13.5835 6.07717C13.6389 6.16869 13.93 6.31573 14.0771 6.15213C14.2213 5.98566 14.2603 5.47517 14.1131 5.00091C13.9659 4.52653 13.894 4.19645 13.3641 4.08825C12.8344 3.97719 12.5958 4.0133 12.3406 4.34337C12.0854 4.67071 11.9745 5.2005 12.0494 5.58611C12.1215 5.96885 11.9744 5.74971 11.7193 5.73029C11.464 5.7136 11.5363 5.69418 11.281 5.7136C11.0258 5.73029 11.1174 5.56656 11.0979 5.29201C11.0812 5.01735 11.0452 4.45157 10.6596 4.23244C10.2767 4.0133 9.61944 4.26854 9.636 5.18394C9.65542 6.0966 9.96607 6.53475 10.1492 6.20467C10.3323 5.87733 10.2407 6.04106 10.0577 5.89402C9.87468 5.74984 9.74706 5.14509 9.94677 4.9648C10.1492 4.78177 10.385 4.78177 10.5154 4.88997C10.643 5.00091 10.8427 5.36709 10.8066 5.60279C10.7705 5.84135 10.7511 5.85804 10.5154 6.02438C10.2768 6.18799 10.1853 6.33503 9.91079 6.51532C9.63612 6.69835 9.52805 7.12007 9.74718 7.22826C9.96632 7.3392 9.98574 7.31978 10.166 7.59445C10.3491 7.86912 10.6597 7.99661 11.4281 7.86912C12.1937 7.74149 12.5098 7.55846 13.0896 7.35589C13.5114 7.21158 13.3642 7.22826 13.5114 7.06466C13.6555 6.90105 13.8941 7.13675 13.675 7.2838C13.4558 7.43084 12.9619 7.57502 12.596 7.70265C12.2325 7.83301 11.8109 8.19645 11.0453 8.16034C10.277 8.12424 10.8068 8.14092 10.5682 8.12424C10.3324 8.10481 10.2214 8.14092 10.4767 8.32395C10.7347 8.5071 10.7152 8.56251 10.9344 8.6346C11.1535 8.70956 11.4447 8.70956 11.7942 8.58193C12.141 8.45157 13.0177 8.06871 13.2922 7.88568C13.5642 7.70265 13.7832 7.94121 13.5114 8.12424C13.2368 8.30727 13.1619 8.25186 12.9066 8.41546C12.6515 8.58193 12.1771 8.85374 11.8665 9.14771C11.5558 9.43894 11.4837 9.45836 11.0981 9.47504C10.7154 9.49447 10.4768 9.0923 10.3131 8.90927C10.1495 8.72612 10.166 8.61804 9.96632 8.39878C9.76661 8.17964 9.74718 8.23231 9.71107 8.47087C9.67497 8.70943 9.40042 9.31131 9.16186 9.7136C8.92604 10.1158 8.90662 10.6096 8.94273 10.9563C8.97883 11.3031 8.88732 11.3391 8.61551 11.7412C8.34085 12.1434 7.88315 13.3306 7.81106 13.7135C7.73884 14.0962 7.64745 14.884 7.68343 15.339C7.71954 15.7967 7.59192 15.8882 7.26184 15.5775C6.93451 15.2669 6.82344 14.9201 6.84299 14.4624C6.85968 14.0713 6.91234 13.7967 6.96227 13.6525C7.0122 13.5083 6.96501 13.4084 6.85968 13.586C6.63494 13.9742 6.62386 14.6456 6.67939 14.8841C6.73205 15.1199 6.75148 15.5415 7.35348 16.1073C7.9581 16.6732 8.83465 17.4582 9.56428 17.988C10.2965 18.5178 10.5518 19.1752 9.47276 19.6496C10.1496 20.565 10.5157 21.0393 10.2217 21.6411C10.8263 21.2944 10.5934 20.4762 10.3021 20.257C10.008 20.0378 10.1856 19.8687 10.4408 20.0352C10.6961 20.1988 10.7876 20.5262 11.7945 20.5095C12.7985 20.4902 13.8804 20.3903 14.4853 19.5109C15.0872 18.6344 15.2037 19.3722 15.0565 19.8854C14.9123 20.3958 14.5516 21.5497 15.1175 21.4415C15.1898 20.7646 15.3561 20.1794 15.3561 19.4499C15.3561 18.7175 15.4283 18.3653 15.3729 17.3057C15.3173 16.2849 15.7584 16.2155 16.2133 16.2155C16.671 16.2155 16.5239 16.5095 16.2328 16.49C15.9388 16.4707 15.6306 16.5817 15.6115 17.3306C15.592 18.0795 15.6115 18.0074 15.7388 18.6815C15.8665 19.3584 15.886 19.5581 15.7751 20.307C15.6669 21.0561 15.5752 21.4581 16.069 21.9159C16.56 22.3736 17.3088 22.2433 17.6945 21.9519C18.0773 21.6607 18.8069 20.984 19.4642 20.7647C20.1244 20.5456 20.818 20.382 21.1839 20.0158C21.5475 19.6497 21.4558 19.3945 21.073 19.1946C20.6902 18.9922 20.3239 19.0837 20.0328 18.7564C19.7386 18.4263 19.5944 17.6967 19.7026 17.3112C19.8135 16.9284 19.9412 17.0921 19.9412 17.3667C19.9412 17.6413 19.958 17.8965 20.2325 18.2431C20.5071 18.5899 20.7622 18.7564 21.2006 19.0282C21.6389 19.3028 21.9134 19.7411 21.3642 20.1266C20.8177 20.5093 20.5069 20.7286 20.0492 20.9116C19.5943 21.0948 18.8455 21.5329 18.3875 21.988C17.9298 22.4457 17.6747 22.8479 16.7789 22.8479C15.8856 22.8479 15.4751 22.6315 15.2089 22.0988C15.0258 21.7328 14.9341 21.7883 14.5154 21.7689C14.0937 21.7522 12.6874 21.7328 11.5918 21.7522C10.4961 21.7689 10.1301 21.9519 9.63624 22.3541C9.1453 22.7562 8.96215 23.067 8.03019 22.7562C7.09824 22.4455 6.60443 22.0988 5.21752 21.8243C3.82774 21.5497 4.57679 21.6772 3.73623 21.4942C2.89578 21.3139 2.95119 20.9116 3.06225 20.5817C3.17045 20.2543 3.445 19.7411 3.20644 19.0671C2.97062 18.3902 3.06225 17.6968 3.70012 17.6968C4.34085 17.6968 4.94285 17.8244 5.19797 16.9839C5.45322 16.1434 5.52805 16.8008 5.45322 17.02C5.38112 17.2391 5.34502 17.841 4.77912 17.9326C4.21322 18.024 4.08572 17.8965 3.7361 17.8965C3.38947 17.8965 3.24516 18.1351 3.42545 18.5372C3.60848 18.9393 3.81093 19.3583 3.77495 19.705C3.7361 20.0516 3.69999 20.1794 3.44487 20.5093C3.18963 20.8367 3.22574 21.0032 3.68343 21.1113C4.13827 21.2224 4.96215 21.4414 5.72776 21.6246C6.49611 21.8047 6.55164 21.8047 7.88302 22.1544C9.21727 22.501 9.58345 21.8797 9.69165 21.1308C9.80259 20.3817 9.28948 19.6689 8.8151 18.956C8.34072 18.243 7.83011 17.4224 7.20868 16.6733C6.58737 15.9244 6.22119 15.8689 5.91054 16.0326C5.59976 16.1991 5.54436 16.163 5.52767 15.7414C5.50825 15.3225 5.47214 15.048 5.8189 14.4265C6.16566 13.8052 6.47631 13.1283 6.84249 12.0881C7.20855 11.048 7.53589 10.8455 8.15732 9.94955C8.77875 9.05644 8.50408 9.40308 8.94235 8.8012C9.38063 8.19658 9.253 8.30739 9.21702 7.35601C9.18091 6.40725 9.14493 5.85803 9.10882 4.6153ZM7.36407 12.0437C7.45844 12.1575 7.59155 11.8884 7.73025 11.7858C7.79007 11.7319 7.83519 11.6636 7.86139 11.5874C7.88759 11.5112 7.89401 11.4296 7.88003 11.3503C7.86621 11.2644 7.72739 11.292 7.69974 11.3225C7.61383 11.4084 7.63313 11.5473 7.57212 11.6665C7.50277 11.8107 7.26981 11.9273 7.36407 12.0437ZM15.2169 8.22683C15.4139 8.3933 15.5359 8.53761 15.644 8.29071C15.7552 8.0438 15.7552 7.94395 15.4888 7.84409C15.2252 7.74137 15.1061 7.63329 14.9867 7.49733C14.8675 7.35863 14.8259 7.59445 14.9229 7.82467C15.0421 8.10768 15.1114 8.14092 15.2169 8.22683ZM11.1005 5.96063C10.9645 5.93287 10.8009 5.94395 10.7093 6.05215C10.6732 6.08825 10.6898 6.19085 10.7536 6.21862C10.8368 6.25472 10.8923 6.17155 10.909 6.10768C10.9173 6.07991 10.9284 6.04393 10.9562 6.03559C10.9923 6.01616 11.0449 6.03285 11.0838 6.01616C11.1282 5.99948 11.1116 5.96063 11.1005 5.96063ZM11.7468 5.98566C11.8023 6.06883 11.9022 6.06883 11.9854 6.10494C12.0297 6.12436 12.1213 6.15213 12.149 6.08825C12.2128 5.8858 11.9382 5.94955 11.8106 5.94955C11.7829 5.94955 11.719 5.94133 11.7468 5.98566ZM13.0784 5.10077C13.2032 5.10625 13.3724 5.32825 13.389 5.58623C13.3916 5.62508 13.4972 5.62221 13.5193 5.58349C13.5777 5.4809 13.5361 5.36709 13.5084 5.24507C13.486 5.14522 13.3668 5.04262 13.2669 4.99817C13.2003 4.9648 13.131 4.95385 13.0422 4.9648C13.02 4.97601 12.9425 5.09242 13.0784 5.10077ZM10.3572 5.03702C10.2434 5.04524 10.2851 5.13401 10.2905 5.2061C10.4487 5.29488 10.4625 5.49459 10.4957 5.65272C10.4985 5.71373 10.59 5.68609 10.5983 5.66666C10.6677 5.53904 10.5816 5.39486 10.5513 5.24507C10.5235 5.16738 10.4708 5.0786 10.3986 5.02594C10.3877 5.01485 10.3681 5.03702 10.3572 5.03702ZM13.8465 2.23816C13.7327 2.14665 13.5552 2.11054 13.5026 2.26033C13.4472 2.38795 13.4693 2.51831 13.4386 2.65701C13.4386 2.70134 13.3832 2.71242 13.3529 2.75401C13.3084 2.80667 13.3195 2.87329 13.3417 2.89271C13.4472 3.00091 13.6412 2.78725 13.7828 2.71242C13.8881 2.64581 14.0405 2.73184 14.1573 2.65701C14.1904 2.63485 14.2015 2.58206 14.1683 2.54047C14.0934 2.41011 13.9631 2.33528 13.8465 2.23816Z" fill="#6F38BA"/>
</svg>
