<svg width="24" height="24" viewBox="0 0 24 24" fill="none" xmlns="http://www.w3.org/2000/svg">
<path d="M15.4987 7.50098L18.9987 4.00098M20.9987 2.00098L18.9987 4.00098L20.9987 2.00098ZM11.3887 11.611C11.905 12.1204 12.3155 12.727 12.5964 13.3958C12.8774 14.0645 13.0233 14.7822 13.0257 15.5076C13.0281 16.233 12.8871 16.9517 12.6106 17.6223C12.3341 18.2929 11.9277 18.9022 11.4148 19.4151C10.9019 19.928 10.2926 20.3344 9.62199 20.6109C8.95137 20.8874 8.23269 21.0284 7.50732 21.026C6.78195 21.0236 6.06423 20.8777 5.39548 20.5967C4.72673 20.3158 4.12015 19.9053 3.61069 19.389C2.60882 18.3517 2.05445 16.9624 2.06698 15.5203C2.07951 14.0782 2.65794 12.6987 3.67769 11.679C4.69743 10.6592 6.0769 10.0808 7.51898 10.0683C8.96106 10.0557 10.3504 10.6101 11.3877 11.612L11.3887 11.611ZM11.3887 11.611L15.4987 7.50098L11.3887 11.611ZM15.4987 7.50098L18.4987 10.501L21.9987 7.00098L18.9987 4.00098L15.4987 7.50098Z" stroke="#673AB7" stroke-width="1.92" stroke-linecap="round" stroke-linejoin="round"/>
</svg>
