<svg width="24" height="24" viewBox="0 0 24 24" fill="none" xmlns="http://www.w3.org/2000/svg">
<path d="M1 5.17093C1 4.59517 1.22479 4.04298 1.62492 3.63585C2.02505 3.22872 2.56775 3 3.13362 3H21.625C22.1909 3 22.7336 3.22872 23.1337 3.63585C23.5338 4.04298 23.7586 4.59517 23.7586 5.17093V18.1965C23.7587 18.4817 23.7036 18.7641 23.5965 19.0276C23.4893 19.2911 23.3322 19.5305 23.134 19.7322C22.9359 19.9339 22.7006 20.0939 22.4417 20.2031C22.1828 20.3122 21.9053 20.3684 21.625 20.3684H3.13362C2.56775 20.3684 2.02505 20.1397 1.62492 19.7326C1.22479 19.3254 1 18.7733 1 18.1975V5.1719V5.17093ZM3.13362 4.44729C2.945 4.44729 2.7641 4.52353 2.63072 4.65924C2.49734 4.79495 2.42241 4.97901 2.42241 5.17093V18.1965C2.42241 18.5969 2.74103 18.9202 3.13362 18.9202H21.625C21.8136 18.9202 21.9945 18.8439 22.1279 18.7082C22.2613 18.5725 22.3362 18.3884 22.3362 18.1965V5.1719C22.3362 4.97997 22.2613 4.79591 22.1279 4.6602C21.9945 4.52449 21.8136 4.44825 21.625 4.44825H3.13362V4.44729ZM12.3774 6.49472C12.566 6.49489 12.7468 6.57124 12.88 6.70699L15.9666 9.84664C16.0961 9.98318 16.1677 10.166 16.166 10.3557C16.1643 10.5455 16.0894 10.7269 15.9575 10.8611C15.8256 10.9952 15.6472 11.0712 15.4607 11.0727C15.2742 11.0743 15.0946 11.0013 14.9605 10.8694L13.0886 8.96476V16.1501C13.0886 16.342 13.0137 16.526 12.8803 16.6618C12.7469 16.7975 12.566 16.8737 12.3774 16.8737C12.1888 16.8737 12.0079 16.7975 11.8745 16.6618C11.7411 16.526 11.6662 16.342 11.6662 16.1501V8.96669L9.7981 10.8694C9.73253 10.9385 9.65408 10.9937 9.56732 11.0317C9.48057 11.0696 9.38726 11.0896 9.29282 11.0905C9.19839 11.0914 9.10473 11.0731 9.01731 11.0368C8.92989 11.0004 8.85046 10.9468 8.78365 10.8788C8.71684 10.8109 8.66399 10.7302 8.62819 10.6412C8.59239 10.5523 8.57435 10.457 8.57513 10.361C8.5759 10.2649 8.59548 10.1699 8.63271 10.0816C8.66994 9.9933 8.72409 9.91342 8.79198 9.84664L11.8739 6.70699C12.0071 6.57124 12.1879 6.49489 12.3765 6.49472H12.3774Z" fill="#6F38BA"/>
</svg>
