<svg width="24" height="24" viewBox="0 0 24 24" fill="white" xmlns="http://www.w3.org/2000/svg">
<path fill-rule="evenodd" clip-rule="evenodd" d="M2.01239 8C2.01239 6.9 2.90239 6 4.00239 6H16.0024C17.1024 6 18.0024 6.9 18.0024 8L18.0026 17C18.0026 18.1 17.1026 19 16.0026 19H6.00262L2.00262 23L2.01239 8ZM16.0006 7.998H4.00062V18.168L5.17062 16.998H16.0006V7.998ZM6.00132 13H11.0013V15H6.00132V13ZM14.0013 10H6.00132V12H14.0013V10Z" fill="#673AB7"/>
<path fill-rule="evenodd" clip-rule="evenodd" d="M19.9976 1.99902C21.0976 1.99902 21.9876 2.89902 21.9876 3.99902L21.9974 18.999L17.9974 14.999L17.9974 12.997H18.8294L19.9994 14.167V3.99702H7.99938V5.99902H5.99756L5.99761 3.99902C5.99761 2.89902 6.89761 1.99902 7.99761 1.99902H19.9976Z" fill="#673AB7"/>
</svg>
