<svg width="24" height="24" viewBox="0 0 24 24" fill="none" xmlns="http://www.w3.org/2000/svg">
<path d="M15.0466 4.99902C16.0234 5.18959 16.921 5.66728 17.6247 6.37096C18.3284 7.07464 18.8061 7.97229 18.9966 8.94902M15.0466 0.999023C17.0759 1.22446 18.9682 2.1332 20.4129 3.57603C21.8575 5.01886 22.7687 6.91003 22.9966 8.93902M21.9966 16.919V19.919C21.9978 20.1975 21.9407 20.4732 21.8292 20.7284C21.7176 20.9835 21.5539 21.2126 21.3487 21.4009C21.1435 21.5892 20.9012 21.7325 20.6374 21.8217C20.3736 21.911 20.094 21.9441 19.8166 21.919C16.7395 21.5847 13.7836 20.5332 11.1866 18.849C8.77047 17.3137 6.72197 15.2652 5.18664 12.849C3.49662 10.2402 2.44488 7.27002 2.11664 4.17902C2.09165 3.90249 2.12451 3.62378 2.21314 3.36065C2.30176 3.09751 2.44421 2.85571 2.6314 2.65064C2.8186 2.44558 3.04644 2.28173 3.30043 2.16955C3.55441 2.05736 3.82898 1.99928 4.10664 1.99902H7.10664C7.59195 1.99425 8.06243 2.1661 8.4304 2.48256C8.79837 2.79901 9.03872 3.23847 9.10664 3.71902C9.23326 4.67909 9.46809 5.62175 9.80664 6.52902C9.94118 6.88695 9.9703 7.27594 9.89055 7.6499C9.81079 8.02387 9.6255 8.36713 9.35664 8.63902L8.08664 9.90902C9.51019 12.4126 11.5831 14.4855 14.0866 15.909L15.3566 14.639C15.6285 14.3702 15.9718 14.1849 16.3458 14.1051C16.7197 14.0254 17.1087 14.0545 17.4666 14.189C18.3739 14.5276 19.3166 14.7624 20.2766 14.889C20.7624 14.9576 21.206 15.2022 21.5232 15.5765C21.8403 15.9508 22.0088 16.4286 21.9966 16.919Z" stroke="#6F38BA" stroke-width="1.92" stroke-linecap="round" stroke-linejoin="round"/>
</svg>
